{
	"meshes":[{
		"name":"Ebene",
		"primitives":[{
			"attributes":{
				"POSITION":1,
				"NORMAL":2,
				"TEXCOORD_0":3
			},
			"indices":0,
			"material":0
		}]
	},
	{
		"name":"Zylinder Instanz.1",
		"primitives":[{
			"attributes":{
				"POSITION":5,
				"NORMAL":6,
				"TEXCOORD_0":7
			},
			"indices":4,
			"material":1
		}]
	},
	{
		"name":"Zylinder Instanz",
		"primitives":[{
			"attributes":{
				"POSITION":9,
				"NORMAL":10,
				"TEXCOORD_0":11
			},
			"indices":8,
			"material":2
		}]
	},
	{
		"name":"Zylinder",
		"primitives":[{
			"attributes":{
				"POSITION":13,
				"NORMAL":14,
				"TEXCOORD_0":15
			},
			"indices":12
		}]
	}],
	"asset":{
		"version":"2.0",
		"generator":"Created using the official Cinema 4D glTF Exporter 1.000x284978"
	},
	"scenes":[{
		"nodes":[0,
		1,
		2,
		3]
	}],
	"nodes":[{
		"mesh":0,
		"name":"Ebene",
		"translation":[0.0,
		102.48229217529297,
		0.0],
		"rotation":[0.0,
		0.0,
		0.0,
		-1.0],
		"scale":[1.0,
		1.0,
		1.0]
	},
	{
		"mesh":1,
		"name":"Zylinder Instanz.1",
		"translation":[0.0,
		100.0,
		0.0],
		"rotation":[-0.7071067690849304,
		0.0,
		0.0,
		-0.7071067690849304],
		"scale":[1.0,
		1.0,
		1.0]
	},
	{
		"mesh":2,
		"name":"Zylinder Instanz",
		"translation":[0.0,
		100.0,
		0.0],
		"rotation":[0.0,
		0.0,
		0.7071067690849304,
		-0.7071067690849304],
		"scale":[1.0,
		1.0,
		1.0]
	},
	{
		"mesh":3,
		"name":"Zylinder",
		"translation":[0.0,
		100.0,
		0.0],
		"rotation":[0.0,
		0.0,
		0.0,
		-1.0],
		"scale":[1.0,
		1.0,
		1.0]
	}],
	"accessors":[{
		"bufferView":0,
		"type":"SCALAR",
		"componentType":5123,
		"count":600,
		"byteOffset":0,
		"min":[0],
		"max":[120]
	},
	{
		"bufferView":1,
		"type":"VEC3",
		"componentType":5126,
		"count":121,
		"byteOffset":0,
		"min":[-200.0,
		61.34226608276367,
		-200.0],
		"max":[200.0,
		141.6813507080078,
		200.0]
	},
	{
		"bufferView":1,
		"type":"VEC3",
		"componentType":5126,
		"count":121,
		"byteOffset":12,
		"min":[-0.22623223066329957,
		0.947437584400177,
		-0.22623223066329957],
		"max":[0.22623223066329957,
		0.9999999403953552,
		0.22623223066329957]
	},
	{
		"bufferView":1,
		"type":"VEC2",
		"componentType":5126,
		"count":121,
		"byteOffset":24,
		"min":[0.0,
		0.0],
		"max":[1.0,
		1.0]
	},
	{
		"bufferView":2,
		"type":"SCALAR",
		"componentType":5123,
		"count":288,
		"byteOffset":0,
		"min":[0],
		"max":[134]
	},
	{
		"bufferView":3,
		"type":"VEC3",
		"componentType":5126,
		"count":135,
		"byteOffset":0,
		"min":[-16.101533889770509,
		-166.0975799560547,
		-16.101533889770509],
		"max":[16.101533889770509,
		192.1563262939453,
		16.101533889770509]
	},
	{
		"bufferView":3,
		"type":"VEC3",
		"componentType":5126,
		"count":135,
		"byteOffset":12,
		"min":[-0.9978091716766357,
		-1.0,
		-0.9978091716766357],
		"max":[0.9978091716766357,
		1.0,
		0.9978091716766357]
	},
	{
		"bufferView":3,
		"type":"VEC2",
		"componentType":5126,
		"count":135,
		"byteOffset":24,
		"min":[-0.23908400535583497,
		-0.06567037105560303],
		"max":[1.0512511730194092,
		1.1919848918914796]
	},
	{
		"bufferView":4,
		"type":"SCALAR",
		"componentType":5123,
		"count":288,
		"byteOffset":0,
		"min":[0],
		"max":[134]
	},
	{
		"bufferView":5,
		"type":"VEC3",
		"componentType":5126,
		"count":135,
		"byteOffset":0,
		"min":[-16.101533889770509,
		-166.0975799560547,
		-16.101533889770509],
		"max":[16.101533889770509,
		192.1563262939453,
		16.101533889770509]
	},
	{
		"bufferView":5,
		"type":"VEC3",
		"componentType":5126,
		"count":135,
		"byteOffset":12,
		"min":[-0.9978091716766357,
		-1.0,
		-0.9978091716766357],
		"max":[0.9978091716766357,
		1.0,
		0.9978091716766357]
	},
	{
		"bufferView":5,
		"type":"VEC2",
		"componentType":5126,
		"count":135,
		"byteOffset":24,
		"min":[-0.23908400535583497,
		-0.06567037105560303],
		"max":[1.0512511730194092,
		1.1919848918914796]
	},
	{
		"bufferView":6,
		"type":"SCALAR",
		"componentType":5123,
		"count":288,
		"byteOffset":0,
		"min":[0],
		"max":[134]
	},
	{
		"bufferView":7,
		"type":"VEC3",
		"componentType":5126,
		"count":135,
		"byteOffset":0,
		"min":[-16.101533889770509,
		-166.0975799560547,
		-16.101533889770509],
		"max":[16.101533889770509,
		192.1563262939453,
		16.101533889770509]
	},
	{
		"bufferView":7,
		"type":"VEC3",
		"componentType":5126,
		"count":135,
		"byteOffset":12,
		"min":[-0.9978091716766357,
		-1.0,
		-0.9978091716766357],
		"max":[0.9978091716766357,
		1.0,
		0.9978091716766357]
	},
	{
		"bufferView":7,
		"type":"VEC2",
		"componentType":5126,
		"count":135,
		"byteOffset":24,
		"min":[-0.23908400535583497,
		-0.06567037105560303],
		"max":[1.0512511730194092,
		1.1919848918914796]
	}],
	"bufferViews":[{
		"buffer":0,
		"byteOffset":0,
		"byteLength":1200,
		"target":34963
	},
	{
		"buffer":0,
		"byteOffset":1200,
		"byteLength":3872,
		"target":34962,
		"byteStride":32
	},
	{
		"buffer":1,
		"byteOffset":0,
		"byteLength":576,
		"target":34963
	},
	{
		"buffer":1,
		"byteOffset":576,
		"byteLength":4320,
		"target":34962,
		"byteStride":32
	},
	{
		"buffer":2,
		"byteOffset":0,
		"byteLength":576,
		"target":34963
	},
	{
		"buffer":2,
		"byteOffset":576,
		"byteLength":4320,
		"target":34962,
		"byteStride":32
	},
	{
		"buffer":3,
		"byteOffset":0,
		"byteLength":576,
		"target":34963
	},
	{
		"buffer":3,
		"byteOffset":576,
		"byteLength":4320,
		"target":34962,
		"byteStride":32
	}],
	"buffers":[{
		"uri":"data:application/octet-stream;base64,",
		"byteLength":5072
	},
	{
		"uri":"data:application/octet-stream;base64,",
		"byteLength":4896
	},
	{
		"uri":"data:application/octet-stream;base64,",
		"byteLength":4896
	},
	{
		"uri":"data:application/octet-stream;base64,",
		"byteLength":4896
	}],
	"images":[{
		"uri":"data:image/jpeg;base64,"
	}],
	"samplers":[{
		"magFilter":9729,
		"minFilter":9729,
		"wrapS":10497,
		"wrapT":10497
	}],
	"textures":[{
		"source":0,
		"sampler":0
	}],
	"materials":[{
		"pbrMetallicRoughness":{
			"baseColorTexture":{
				"index":0
			},
			"baseColorFactor":[0.3040000000000001,
			0.5602666666666667,
			0.8,
			1.0],
			"metallicFactor":1.0,
			"roughnessFactor":0.32
		},
		"emissiveFactor":[0.0,
		0.0,
		0.0],
		"alphaMode":"OPAQUE",
		"doubleSided":true,
		"name":"Mat.2"
	},
	{
		"pbrMetallicRoughness":{
			"baseColorFactor":[0.0,
			0.8,
			0.16000000000000015,
			1.0],
			"metallicFactor":0.0,
			"roughnessFactor":0.5
		},
		"emissiveFactor":[0.0,
		0.0,
		0.0],
		"alphaMode":"OPAQUE",
		"doubleSided":true,
		"name":"Mat.1"
	},
	{
		"pbrMetallicRoughness":{
			"baseColorFactor":[0.8,
			0.12800000000000004,
			0.12800000000000004,
			1.0],
			"metallicFactor":0.0,
			"roughnessFactor":0.5
		},
		"emissiveFactor":[0.0,
		0.0,
		0.0],
		"alphaMode":"OPAQUE",
		"doubleSided":true,
		"name":"Mat"
	}]
}